<?xml version="1.0" standalone="no"?>
<!DOCTYPE svg PUBLIC "-//W3C//DTD SVG 20010904//EN"
 "http://www.w3.org/TR/2001/REC-SVG-20010904/DTD/svg10.dtd">
<svg version="1.0" xmlns="http://www.w3.org/2000/svg"
 width="400.000000pt" height="400.000000pt" viewBox="0 0 400.000000 400.000000"
 preserveAspectRatio="xMidYMid meet">
<metadata>
Created by potrace 1.14, written by Peter Selinger 2001-2017
</metadata>
<g transform="translate(0.000000,400.000000) scale(0.100000,-0.100000)"
fill="#000000" stroke="none">
<path d="M1927 2708 c-35 -48 -59 -136 -60 -226 l-2 -79 -37 10 c-121 30 -180
-89 -105 -213 22 -37 39 -55 52 -55 24 0 25 24 2 77 -16 34 -15 38 1 58 12 15
25 21 38 16 34 -11 48 -47 51 -131 2 -73 4 -80 24 -83 12 -2 26 1 32 7 6 6 27
11 47 11 20 0 41 -5 47 -11 6 -6 21 -9 34 -7 21 3 22 7 23 88 1 75 4 88 25
113 28 31 34 33 55 11 20 -19 21 -64 1 -90 -28 -37 -13 -74 23 -55 26 14 72
110 72 150 0 95 -82 146 -170 107 -13 -5 -15 8 -15 86 0 98 -14 150 -58 215
-28 42 -50 42 -80 1z"/>
<path d="M1113 2641 c-28 -44 -37 -135 -23 -225 7 -48 17 -89 22 -92 4 -3 8
-11 8 -17 0 -8 -18 -12 -51 -12 -45 0 -54 -4 -80 -33 -36 -40 -37 -76 -5 -140
21 -41 86 -102 109 -102 15 0 6 45 -12 64 -27 29 -35 67 -19 89 36 49 119 -41
121 -129 0 -53 15 -64 53 -39 15 9 53 20 86 23 65 5 80 20 58 55 -22 35 -25
130 -5 160 20 31 37 34 60 10 14 -13 16 -28 11 -69 -7 -62 7 -79 35 -45 50 61
44 175 -10 223 -42 38 -101 39 -137 3 -14 -14 -27 -25 -29 -25 -3 0 -5 15 -5
33 0 43 -32 138 -61 180 -31 45 -91 107 -104 107 -5 0 -15 -8 -22 -19z"/>
<path d="M2736 2598 c-26 -35 -50 -74 -53 -88 -3 -14 -9 -30 -14 -35 -4 -6
-11 -34 -15 -63 -7 -55 -16 -62 -44 -37 -10 9 -34 18 -54 22 -84 13 -140 -85
-109 -191 17 -57 29 -76 49 -76 11 0 14 14 12 61 -3 50 0 63 16 75 24 17 26
17 51 -1 16 -13 19 -27 19 -86 -1 -38 -6 -75 -13 -82 -15 -15 -14 -57 2 -58 6
-1 24 0 40 1 34 2 97 -18 97 -31 0 -6 10 -9 22 -7 17 2 24 13 33 58 13 64 24
86 60 120 20 19 30 22 43 14 27 -17 26 -52 -3 -95 -26 -36 -28 -69 -6 -69 19
0 79 61 100 101 25 47 28 117 6 125 -8 4 -15 12 -15 18 0 27 -80 52 -111 35
-20 -10 -21 -9 -14 7 37 93 44 209 17 289 -14 41 -22 51 -43 53 -22 3 -34 -7
-73 -60z"/>
<path d="M3500 2352 c-68 -46 -145 -124 -166 -169 -19 -39 -26 -41 -44 -8 -13
25 -65 55 -95 55 -26 0 -71 -30 -88 -60 -22 -37 -39 -118 -32 -152 7 -31 33
-38 41 -10 25 79 62 117 93 97 22 -13 2 -135 -21 -135 -4 0 -8 -4 -8 -10 0 -5
-11 -21 -26 -35 -29 -29 -25 -41 20 -60 37 -16 57 -7 83 37 11 18 29 44 41 58
12 14 44 56 72 94 28 38 61 83 75 100 89 113 155 211 151 222 -9 23 -38 15
-96 -24z"/>
<path d="M367 2343 c-15 -14 -6 -53 16 -70 13 -10 39 -39 58 -64 115 -154 184
-245 194 -256 7 -6 26 -34 44 -62 35 -54 66 -65 104 -37 22 17 22 39 -3 61
-28 25 -60 96 -60 132 0 73 73 64 87 -10 9 -45 38 -71 53 -48 4 8 6 33 4 55
-11 92 -44 147 -102 167 -41 14 -101 -13 -116 -53 -6 -15 -14 -28 -17 -28 -4
0 -18 17 -30 38 -58 96 -202 205 -232 175z"/>
<path d="M1530 1973 c-25 -24 -74 -58 -109 -76 -56 -27 -77 -32 -160 -35 -79
-3 -107 0 -156 18 -33 12 -68 24 -77 27 -13 4 -19 -2 -24 -23 -19 -80 -61
-120 -154 -148 -53 -15 -63 -42 -31 -82 20 -25 111 -207 111 -221 0 -11 68
-146 84 -166 13 -16 15 -16 57 2 63 28 180 60 280 76 48 7 104 18 125 24 22 5
66 13 99 16 33 4 101 13 150 21 102 16 340 18 490 4 158 -14 567 -98 682 -140
l52 -19 24 52 c14 29 30 70 37 92 17 57 140 305 151 305 5 0 9 7 9 15 0 16
-16 24 -90 46 -50 15 -120 78 -120 109 0 33 -12 50 -35 50 -13 0 -26 -4 -29
-8 -3 -5 -40 -17 -82 -27 -153 -36 -268 -8 -395 97 -26 21 -55 38 -65 38 -10
0 -58 -20 -108 -44 -118 -56 -190 -71 -316 -63 -101 6 -206 38 -286 88 -44 27
-63 22 -114 -28z"/>
</g>
</svg>
